<svg width="82" height="46" viewBox="0 0 82 46" fill="none" xmlns="http://www.w3.org/2000/svg">
<path d="M11.0765 1.36364L21.6234 34.517H22.0282L32.5964 1.36364H42.8237L27.7811 45H15.8919L0.827948 1.36364H11.0765ZM71.7477 13.9134C71.5772 12.1946 70.8457 10.8594 69.5531 9.90767C68.2605 8.95596 66.5062 8.48011 64.2903 8.48011C62.7846 8.48011 61.5133 8.69318 60.4764 9.11932C59.4395 9.53125 58.644 10.1065 58.09 10.8452C57.5502 11.5838 57.2804 12.4219 57.2804 13.3594C57.252 14.1406 57.4153 14.8224 57.7704 15.4048C58.1397 15.9872 58.644 16.4915 59.2832 16.9176C59.9224 17.3295 60.661 17.6918 61.4991 18.0043C62.3372 18.3026 63.2321 18.5582 64.1838 18.7713L68.1042 19.7088C70.0076 20.1349 71.7548 20.7031 73.3457 21.4134C74.9366 22.1236 76.3145 22.9972 77.4792 24.0341C78.644 25.071 79.546 26.2926 80.1852 27.6989C80.8386 29.1051 81.1724 30.7173 81.1866 32.5355C81.1724 35.206 80.4906 37.5213 79.1412 39.4815C77.8059 41.4276 75.8741 42.9403 73.3457 44.0199C70.8315 45.0852 67.7988 45.6179 64.2477 45.6179C60.725 45.6179 57.6568 45.0781 55.0431 43.9986C52.4437 42.919 50.4125 41.321 48.9494 39.2045C47.5005 37.0739 46.7406 34.4389 46.6696 31.2997H55.5971C55.6966 32.7628 56.1156 33.9844 56.8542 34.9645C57.6071 35.9304 58.6085 36.6619 59.8585 37.1591C61.1227 37.642 62.5502 37.8835 64.1412 37.8835C65.7037 37.8835 67.0602 37.6562 68.2108 37.2017C69.3755 36.7472 70.2775 36.1151 70.9167 35.3054C71.5559 34.4957 71.8755 33.5653 71.8755 32.5142C71.8755 31.5341 71.5843 30.7102 71.002 30.0426C70.4338 29.375 69.5957 28.8068 68.4877 28.3381C67.394 27.8693 66.0517 27.4432 64.4608 27.0597L59.7093 25.8665C56.0304 24.9716 53.1255 23.5724 50.9949 21.669C48.8642 19.7656 47.8059 17.2017 47.8201 13.9773C47.8059 11.3352 48.5091 9.02699 49.9295 7.05256C51.3642 5.07812 53.3315 3.53693 55.8315 2.42898C58.3315 1.32102 61.1724 0.767044 64.3542 0.767044C67.5929 0.767044 70.4196 1.32102 72.8343 2.42898C75.2633 3.53693 77.1525 5.07812 78.502 7.05256C79.8514 9.02699 80.5474 11.3139 80.59 13.9134H71.7477Z" fill="#FFD166"/>
</svg>
